<svg width="128" height="128" viewBox="0 0 128 128" xmlns="http://www.w3.org/2000/svg">
  <defs>
    <linearGradient id="brainGradient" x1="0%" y1="0%" x2="100%" y2="100%">
      <stop offset="0%" style="stop-color:#667eea;stop-opacity:1" />
      <stop offset="100%" style="stop-color:#764ba2;stop-opacity:1" />
    </linearGradient>
  </defs>
  
  <!-- Background circle -->
  <circle cx="64" cy="64" r="58" fill="url(#brainGradient)" stroke="#4a5568" stroke-width="2"/>
  
  <!-- Brain symbol -->
  <g transform="translate(32, 28)">
    <!-- Left hemisphere -->
    <path d="M8 20 Q8 8 20 8 Q32 8 32 20 Q32 32 28 40 Q24 48 16 48 Q8 48 8 40 Q8 32 8 20" 
          fill="white" opacity="0.9"/>
    
    <!-- Right hemisphere -->
    <path d="M32 20 Q32 8 44 8 Q56 8 56 20 Q56 32 52 40 Q48 48 40 48 Q32 48 32 40 Q32 32 32 20" 
          fill="white" opacity="0.9"/>
    
    <!-- Connection lines -->
    <line x1="28" y1="24" x2="36" y2="24" stroke="#667eea" stroke-width="2"/>
    <line x1="28" y1="32" x2="36" y2="32" stroke="#667eea" stroke-width="2"/>
    <line x1="28" y1="40" x2="36" y2="40" stroke="#667eea" stroke-width="2"/>
  </g>
  
  <!-- Memory dots -->
  <circle cx="40" cy="90" r="3" fill="#f7fafc"/>
  <circle cx="52" cy="95" r="2" fill="#f7fafc"/>
  <circle cx="64" cy="92" r="2.5" fill="#f7fafc"/>
  <circle cx="76" cy="96" r="2" fill="#f7fafc"/>
  <circle cx="88" cy="90" r="3" fill="#f7fafc"/>
</svg>